<svg xmlns="http://www.w3.org/2000/svg" fill="none" viewBox="116.51 95.15 225.57 313.64">
<path fill-rule="evenodd" clip-rule="evenodd" d="M318.94 182.15L334.01 188.8V189.82C334.01 200.48 333.9 201.99 332.08 209.92C331.05 214.64 330.14 219.24 330.02 220.21C329.96 221.24 332.32 227.54 335.83 235.83C339.09 243.46 341.94 250.12 342.06 250.48C342.3 251.09 340.3 251.27 333.4 251.27H324.38L318.99 282.03C316.03 298.92 313.42 312.91 313.24 313.15C313 313.39 301.08 314.12 286.67 314.78C272.21 315.39 260.34 316.05 260.28 316.17C260.16 316.23 251.57 333.12 241.16 353.59C216.59 401.97 212.47 409.78 212.29 408.69C212.17 408.21 218.77 384.35 226.81 355.71L241.58 303.64L250.9 303.16C256.04 302.92 268.51 302.37 278.68 301.95L297.14 301.22L302.95 271.25L308.7 241.28L317.96 241.1C324.55 240.98 327.22 240.74 327.46 240.19C327.58 239.77 324.86 233.23 321.35 225.66C317.84 218.09 315 211.67 315 211.31C315 211.01 315.67 208.4 316.51 205.5C318.71 197.91 319.48 190.01 318.92 182.14L318.94 182.15Z" fill="#F5F5F5"/>
<path fill-rule="evenodd" clip-rule="evenodd" d="M318.93 182.24C317.58 163.05 308.35 143.99 292.74 129.7C279.43 117.53 260.48 107.78 241.78 103.42C230.04 100.76 213.52 99.48 202.75 100.51C199.12 100.87 196.03 101.05 195.91 100.99C195.31 100.38 211.83 96.63 218.43 95.84C232.71 94.14 248.93 95.6 263.46 99.78C293.78 108.56 319.38 132.17 329.43 160.63C333.01 170.8 334.03 176.86 334.02 188.83L330.43 187.24L318.94 182.23L318.93 182.24Z" fill="#F5F5F5"/>
<path d="M138.51 195.34C139.377 195.34 140.08 194.637 140.08 193.77C140.08 192.903 139.377 192.2 138.51 192.2C137.643 192.2 136.94 192.903 136.94 193.77C136.94 194.637 137.643 195.34 138.51 195.34Z" fill="#008080" stroke="#008080" stroke-width="2" stroke-miterlimit="10"/>
<path d="M123.17 189.44C124.037 189.44 124.74 188.737 124.74 187.87C124.74 187.003 124.037 186.3 123.17 186.3C122.303 186.3 121.6 187.003 121.6 187.87C121.6 188.737 122.303 189.44 123.17 189.44Z" fill="#008080" stroke="#008080" stroke-width="2" stroke-miterlimit="10"/>
<path d="M119.91 196C120.777 196 121.48 195.297 121.48 194.43C121.48 193.563 120.777 192.86 119.91 192.86C119.043 192.86 118.34 193.563 118.34 194.43C118.34 195.297 119.043 196 119.91 196Z" fill="#008080" stroke="#008080" stroke-width="2" stroke-miterlimit="10"/>
<path d="M126.69 199.85C127.557 199.85 128.26 199.147 128.26 198.28C128.26 197.413 127.557 196.71 126.69 196.71C125.823 196.71 125.12 197.413 125.12 198.28C125.12 199.147 125.823 199.85 126.69 199.85Z" fill="#008080" stroke="#008080" stroke-width="2" stroke-miterlimit="10"/>
<path d="M279.33 208.26C280.197 208.26 280.9 207.557 280.9 206.69C280.9 205.823 280.197 205.12 279.33 205.12C278.463 205.12 277.76 205.823 277.76 206.69C277.76 207.557 278.463 208.26 279.33 208.26Z" fill="#008080" stroke="#008080" stroke-width="2" stroke-miterlimit="10"/>
<path d="M292.92 185.15C293.787 185.15 294.49 184.447 294.49 183.58C294.49 182.713 293.787 182.01 292.92 182.01C292.053 182.01 291.35 182.713 291.35 183.58C291.35 184.447 292.053 185.15 292.92 185.15Z" fill="#008080" stroke="#008080" stroke-width="2" stroke-miterlimit="10"/>
<path d="M191.27 175.24C192.137 175.24 192.84 174.537 192.84 173.67C192.84 172.803 192.137 172.1 191.27 172.1C190.403 172.1 189.7 172.803 189.7 173.67C189.7 174.537 190.403 175.24 191.27 175.24Z" fill="#008080" stroke="#008080" stroke-width="2" stroke-miterlimit="10"/>
<path d="M221.29 128.13C222.157 128.13 222.86 127.427 222.86 126.56C222.86 125.693 222.157 124.99 221.29 124.99C220.423 124.99 219.72 125.693 219.72 126.56C219.72 127.427 220.423 128.13 221.29 128.13Z" fill="#008080" stroke="#008080" stroke-width="2" stroke-miterlimit="10"/>
<path d="M119.08 175.53C119.947 175.53 120.65 174.827 120.65 173.96C120.65 173.093 119.947 172.39 119.08 172.39C118.213 172.39 117.51 173.093 117.51 173.96C117.51 174.827 118.213 175.53 119.08 175.53Z" fill="#008080" stroke="#008080" stroke-width="2" stroke-miterlimit="10"/>
<path d="M145 149.56C145.867 149.56 146.57 148.857 146.57 147.99C146.57 147.123 145.867 146.42 145 146.42C144.133 146.42 143.43 147.123 143.43 147.99C143.43 148.857 144.133 149.56 145 149.56Z" fill="#008080" stroke="#008080" stroke-width="2" stroke-miterlimit="10"/>
<path d="M126.38 209.69C127.247 209.69 127.95 208.987 127.95 208.12C127.95 207.253 127.247 206.55 126.38 206.55C125.513 206.55 124.81 207.253 124.81 208.12C124.81 208.987 125.513 209.69 126.38 209.69Z" fill="#008080" stroke="#008080" stroke-width="2" stroke-miterlimit="10"/>
<path d="M136.47 203.82C137.337 203.82 138.04 203.117 138.04 202.25C138.04 201.383 137.337 200.68 136.47 200.68C135.603 200.68 134.9 201.383 134.9 202.25C134.9 203.117 135.603 203.82 136.47 203.82Z" fill="#008080" stroke="#008080" stroke-width="2" stroke-miterlimit="10"/>
<path d="M261.45 172.4C262.317 172.4 263.02 171.697 263.02 170.83C263.02 169.963 262.317 169.26 261.45 169.26C260.583 169.26 259.88 169.963 259.88 170.83C259.88 171.697 260.583 172.4 261.45 172.4Z" fill="#008080" stroke="#008080" stroke-width="2" stroke-miterlimit="10"/>
<path d="M246.56 204.4C247.427 204.4 248.13 203.697 248.13 202.83C248.13 201.963 247.427 201.26 246.56 201.26C245.693 201.26 244.99 201.963 244.99 202.83C244.99 203.697 245.693 204.4 246.56 204.4Z" fill="#008080" stroke="#008080" stroke-width="2" stroke-miterlimit="10"/>
<path d="M248.73 134.75C249.597 134.75 250.3 134.047 250.3 133.18C250.3 132.313 249.597 131.61 248.73 131.61C247.863 131.61 247.16 132.313 247.16 133.18C247.16 134.047 247.863 134.75 248.73 134.75Z" fill="#008080" stroke="#008080" stroke-width="2" stroke-miterlimit="10"/>
<path d="M264.48 143.72C265.347 143.72 266.05 143.017 266.05 142.15C266.05 141.283 265.347 140.58 264.48 140.58C263.613 140.58 262.91 141.283 262.91 142.15C262.91 143.017 263.613 143.72 264.48 143.72Z" fill="#008080" stroke="#008080" stroke-width="2" stroke-miterlimit="10"/>
<path d="M157.42 133.07C158.287 133.07 158.99 132.367 158.99 131.5C158.99 130.633 158.287 129.93 157.42 129.93C156.553 129.93 155.85 130.633 155.85 131.5C155.85 132.367 156.553 133.07 157.42 133.07Z" fill="#008080" stroke="#008080" stroke-width="2" stroke-miterlimit="10"/>
<path d="M140.1 144.11C140.967 144.11 141.67 143.407 141.67 142.54C141.67 141.673 140.967 140.97 140.1 140.97C139.233 140.97 138.53 141.673 138.53 142.54C138.53 143.407 139.233 144.11 140.1 144.11Z" fill="#008080" stroke="#008080" stroke-width="2" stroke-miterlimit="10"/>
<path d="M184.73 128.59C185.597 128.59 186.3 127.887 186.3 127.02C186.3 126.153 185.597 125.45 184.73 125.45C183.863 125.45 183.16 126.153 183.16 127.02C183.16 127.887 183.863 128.59 184.73 128.59Z" fill="#008080" stroke="#008080" stroke-width="2" stroke-miterlimit="10"/>
<path d="M198.97 127.43C199.837 127.43 200.54 126.727 200.54 125.86C200.54 124.993 199.837 124.29 198.97 124.29C198.103 124.29 197.4 124.993 197.4 125.86C197.4 126.727 198.103 127.43 198.97 127.43Z" fill="#008080" stroke="#008080" stroke-width="2" stroke-miterlimit="10"/>
<path d="M158.35 210.42C159.217 210.42 159.92 209.717 159.92 208.85C159.92 207.983 159.217 207.28 158.35 207.28C157.483 207.28 156.78 207.983 156.78 208.85C156.78 209.717 157.483 210.42 158.35 210.42Z" fill="#008080" stroke="#008080" stroke-width="2" stroke-miterlimit="10"/>
<path d="M162.57 272.14C163.437 272.14 164.14 271.437 164.14 270.57C164.14 269.703 163.437 269 162.57 269C161.703 269 161 269.703 161 270.57C161 271.437 161.703 272.14 162.57 272.14Z" fill="#008080" stroke="#008080" stroke-width="2" stroke-miterlimit="10"/>
<path d="M277 154.17C277.867 154.17 278.57 153.467 278.57 152.6C278.57 151.733 277.867 151.03 277 151.03C276.133 151.03 275.43 151.733 275.43 152.6C275.43 153.467 276.133 154.17 277 154.17Z" fill="#008080" stroke="#008080" stroke-width="2" stroke-miterlimit="10"/>
<path d="M241.72 139.56C242.587 139.56 243.29 138.857 243.29 137.99C243.29 137.123 242.587 136.42 241.72 136.42C240.853 136.42 240.15 137.123 240.15 137.99C240.15 138.857 240.853 139.56 241.72 139.56Z" fill="#008080" stroke="#008080" stroke-width="2" stroke-miterlimit="10"/>
<path d="M138.49 164.27C139.357 164.27 140.06 163.567 140.06 162.7C140.06 161.833 139.357 161.13 138.49 161.13C137.623 161.13 136.92 161.833 136.92 162.7C136.92 163.567 137.623 164.27 138.49 164.27Z" fill="#008080" stroke="#008080" stroke-width="2" stroke-miterlimit="10"/>
<path d="M126.62 162.8C127.487 162.8 128.19 162.097 128.19 161.23C128.19 160.363 127.487 159.66 126.62 159.66C125.753 159.66 125.05 160.363 125.05 161.23C125.05 162.097 125.753 162.8 126.62 162.8Z" fill="#008080" stroke="#008080" stroke-width="2" stroke-miterlimit="10"/>
<path d="M161.43 161.84C162.297 161.84 163 161.137 163 160.27C163 159.403 162.297 158.7 161.43 158.7C160.563 158.7 159.86 159.403 159.86 160.27C159.86 161.137 160.563 161.84 161.43 161.84Z" fill="#008080" stroke="#008080" stroke-width="2" stroke-miterlimit="10"/>
<path d="M162.82 187.57C163.687 187.57 164.39 186.867 164.39 186C164.39 185.133 163.687 184.43 162.82 184.43C161.953 184.43 161.25 185.133 161.25 186C161.25 186.867 161.953 187.57 162.82 187.57Z" fill="#008080" stroke="#008080" stroke-width="2" stroke-miterlimit="10"/>
<path d="M199.56 158.68C200.427 158.68 201.13 157.977 201.13 157.11C201.13 156.243 200.427 155.54 199.56 155.54C198.693 155.54 197.99 156.243 197.99 157.11C197.99 157.977 198.693 158.68 199.56 158.68Z" fill="#008080" stroke="#008080" stroke-width="2" stroke-miterlimit="10"/>
<path d="M259.3 147.82C260.167 147.82 260.87 147.117 260.87 146.25C260.87 145.383 260.167 144.68 259.3 144.68C258.433 144.68 257.73 145.383 257.73 146.25C257.73 147.117 258.433 147.82 259.3 147.82Z" fill="#008080" stroke="#008080" stroke-width="2" stroke-miterlimit="10"/>
<path d="M134.6 213.65C135.467 213.65 136.17 212.947 136.17 212.08C136.17 211.213 135.467 210.51 134.6 210.51C133.733 210.51 133.03 211.213 133.03 212.08C133.03 212.947 133.733 213.65 134.6 213.65Z" fill="#008080" stroke="#008080" stroke-width="2" stroke-miterlimit="10"/>
<path d="M208.54 146.59C209.407 146.59 210.11 145.887 210.11 145.02C210.11 144.153 209.407 143.45 208.54 143.45C207.673 143.45 206.97 144.153 206.97 145.02C206.97 145.887 207.673 146.59 208.54 146.59Z" fill="#008080" stroke="#008080" stroke-width="2" stroke-miterlimit="10"/>
<path d="M193.87 217.39C194.737 217.39 195.44 216.687 195.44 215.82C195.44 214.953 194.737 214.25 193.87 214.25C193.003 214.25 192.3 214.953 192.3 215.82C192.3 216.687 193.003 217.39 193.87 217.39Z" fill="#008080" stroke="#008080" stroke-width="2" stroke-miterlimit="10"/>
<path d="M189.52 233.55C190.387 233.55 191.09 232.847 191.09 231.98C191.09 231.113 190.387 230.41 189.52 230.41C188.653 230.41 187.95 231.113 187.95 231.98C187.95 232.847 188.653 233.55 189.52 233.55Z" fill="#008080" stroke="#008080" stroke-width="2" stroke-miterlimit="10"/>
<path d="M185.28 223.59C186.147 223.59 186.85 222.887 186.85 222.02C186.85 221.153 186.147 220.45 185.28 220.45C184.413 220.45 183.71 221.153 183.71 222.02C183.71 222.887 184.413 223.59 185.28 223.59Z" fill="#008080" stroke="#008080" stroke-width="2" stroke-miterlimit="10"/>
<path d="M177.58 244.43C178.447 244.43 179.15 243.727 179.15 242.86C179.15 241.993 178.447 241.29 177.58 241.29C176.713 241.29 176.01 241.993 176.01 242.86C176.01 243.727 176.713 244.43 177.58 244.43Z" fill="#008080" stroke="#008080" stroke-width="2" stroke-miterlimit="10"/>
<path d="M147.35 236.6C148.217 236.6 148.92 235.897 148.92 235.03C148.92 234.163 148.217 233.46 147.35 233.46C146.483 233.46 145.78 234.163 145.78 235.03C145.78 235.897 146.483 236.6 147.35 236.6Z" fill="#008080" stroke="#008080" stroke-width="2" stroke-miterlimit="10"/>
<path d="M166.69 234.33C167.557 234.33 168.26 233.627 168.26 232.76C168.26 231.893 167.557 231.19 166.69 231.19C165.823 231.19 165.12 231.893 165.12 232.76C165.12 233.627 165.823 234.33 166.69 234.33Z" fill="#008080" stroke="#008080" stroke-width="2" stroke-miterlimit="10"/>
<path d="M195.12 190.14C195.987 190.14 196.69 189.437 196.69 188.57C196.69 187.703 195.987 187 195.12 187C194.253 187 193.55 187.703 193.55 188.57C193.55 189.437 194.253 190.14 195.12 190.14Z" fill="#008080" stroke="#008080" stroke-width="2" stroke-miterlimit="10"/>
<path d="M134.07 230.78C134.937 230.78 135.64 230.077 135.64 229.21C135.64 228.343 134.937 227.64 134.07 227.64C133.203 227.64 132.5 228.343 132.5 229.21C132.5 230.077 133.203 230.78 134.07 230.78Z" fill="#008080" stroke="#008080" stroke-width="2" stroke-miterlimit="10"/>
<path d="M215.06 231.73C215.927 231.73 216.63 231.027 216.63 230.16C216.63 229.293 215.927 228.59 215.06 228.59C214.193 228.59 213.49 229.293 213.49 230.16C213.49 231.027 214.193 231.73 215.06 231.73Z" fill="#008080" stroke="#008080" stroke-width="2" stroke-miterlimit="10"/>
<path d="M236.25 226.37C237.117 226.37 237.82 225.667 237.82 224.8C237.82 223.933 237.117 223.23 236.25 223.23C235.383 223.23 234.68 223.933 234.68 224.8C234.68 225.667 235.383 226.37 236.25 226.37Z" fill="#008080" stroke="#008080" stroke-width="2" stroke-miterlimit="10"/>
<path d="M206.79 193.21C207.657 193.21 208.36 192.507 208.36 191.64C208.36 190.773 207.657 190.07 206.79 190.07C205.923 190.07 205.22 190.773 205.22 191.64C205.22 192.507 205.923 193.21 206.79 193.21Z" fill="#008080" stroke="#008080" stroke-width="2" stroke-miterlimit="10"/>
<path d="M220.77 195.21C221.637 195.21 222.34 194.507 222.34 193.64C222.34 192.773 221.637 192.07 220.77 192.07C219.903 192.07 219.2 192.773 219.2 193.64C219.2 194.507 219.903 195.21 220.77 195.21Z" fill="#008080" stroke="#008080" stroke-width="2" stroke-miterlimit="10"/>
<path d="M245.47 215.54C246.337 215.54 247.04 214.837 247.04 213.97C247.04 213.103 246.337 212.4 245.47 212.4C244.603 212.4 243.9 213.103 243.9 213.97C243.9 214.837 244.603 215.54 245.47 215.54Z" fill="#008080" stroke="#008080" stroke-width="2" stroke-miterlimit="10"/>
<path d="M228.1 166.64C228.967 166.64 229.67 165.937 229.67 165.07C229.67 164.203 228.967 163.5 228.1 163.5C227.233 163.5 226.53 164.203 226.53 165.07C226.53 165.937 227.233 166.64 228.1 166.64Z" fill="#008080" stroke="#008080" stroke-width="2" stroke-miterlimit="10"/>
<path d="M157.42 131.5L140.1 142.54L145 147.99L157.42 131.5Z" fill="#008080" fill-opacity="0.6" stroke="#008080" stroke-linecap="round" stroke-linejoin="bevel"/>
<path d="M126.62 161.23L140.1 142.54L138.49 162.7L126.62 161.23Z" fill="#008080" fill-opacity="0.6" stroke="#008080" stroke-linecap="round" stroke-linejoin="bevel"/>
<path d="M119.08 173.96L126.62 161.23L123.17 187.87L119.08 173.96Z" fill="#008080" fill-opacity="0.6" stroke="#008080" stroke-linecap="round" stroke-linejoin="bevel"/>
<path d="M138.51 193.77L126.62 161.23L123.17 187.87L138.51 193.77Z" fill="#008080" fill-opacity="0.6" stroke="#008080" stroke-linecap="round" stroke-linejoin="bevel"/>
<path d="M126.69 198.28L138.51 193.77L123.17 187.87L126.69 198.28Z" fill="#008080" fill-opacity="0.6" stroke="#008080" stroke-linecap="round" stroke-linejoin="bevel"/>
<path d="M119.91 197.43L123.17 187.87L126.69 198.28L119.91 197.43Z" fill="#008080" fill-opacity="0.6" stroke="#008080" stroke-linecap="round" stroke-linejoin="bevel"/>
<path d="M126.38 208.12L126.69 198.28L119.91 197.43L126.38 208.12Z" fill="#008080" fill-opacity="0.6" stroke="#008080" stroke-linecap="round" stroke-linejoin="bevel"/>
<path d="M162.82 186L138.49 162.7L138.51 193.77L162.82 186Z" fill="#008080" fill-opacity="0.6" stroke="#008080" stroke-linecap="round" stroke-linejoin="bevel"/>
<path d="M161.43 160.27L145 147.99L138.49 162.7L161.43 160.27Z" fill="#008080" fill-opacity="0.6" stroke="#008080" stroke-linecap="round" stroke-linejoin="bevel"/>
<path d="M199.56 157.11L145 147.99L161.43 160.27L199.56 157.11Z" fill="#008080" fill-opacity="0.6" stroke="#008080" stroke-linecap="round" stroke-linejoin="bevel"/>
<path d="M134.6 212.08L134.07 229.21L147.35 235.03L134.6 212.08Z" fill="#008080" fill-opacity="0.6" stroke="#008080" stroke-linecap="round" stroke-linejoin="bevel"/>
<path d="M163 270.5L166.69 232.76L177.58 242.86L163 270.5Z" fill="#008080" fill-opacity="0.6" stroke="#008080" stroke-linecap="round" stroke-linejoin="bevel"/>
<path d="M185.28 222.02L177.58 242.86L189.52 231.98L185.28 222.02Z" fill="#008080" fill-opacity="0.6" stroke="#008080" stroke-linecap="round" stroke-linejoin="bevel"/>
<path d="M193.87 215.82L185.28 222.02L189.52 231.98L193.87 215.82Z" fill="#008080" fill-opacity="0.6" stroke="#008080" stroke-linecap="round" stroke-linejoin="bevel"/>
<path d="M158.45 208.47L166.69 232.76L134.24 212.07L158.45 208.47Z" fill="#008080" fill-opacity="0.6" stroke="#008080" stroke-linecap="round" stroke-linejoin="bevel"/>
<path d="M158.35 208.85L162.82 186L193.87 215.82L158.35 208.85L185.28 222.02L166.69 232.76L147.35 235.03" fill="#008080" fill-opacity="0.6"/>
<path d="M158.35 208.85L162.82 186L193.87 215.82L158.35 208.85ZM158.35 208.85L185.28 222.02L166.69 232.76L147.35 235.03" stroke="#008080" stroke-linecap="round" stroke-linejoin="bevel"/>
<path d="M162.82 186L134.24 212.07L138.51 193.77" fill="#008080" fill-opacity="0.6"/>
<path d="M162.82 186L134.24 212.07L138.51 193.77" stroke="#008080" stroke-linecap="round" stroke-linejoin="bevel"/>
<path d="M126.69 198.28L136.67 202.26L126.38 208.12" fill="#008080" fill-opacity="0.6"/>
<path d="M126.69 198.28L136.67 202.26L126.38 208.12" stroke="#008080" stroke-linecap="round" stroke-linejoin="bevel"/>
<path d="M184.73 127.02L199.56 157.11L157.42 131.5L184.73 127.02Z" fill="#008080" fill-opacity="0.6" stroke="#008080" stroke-linecap="round" stroke-linejoin="bevel"/>
<path d="M198.97 125.86L208.54 145.02L199.56 157.11L198.97 125.86Z" fill="#008080" fill-opacity="0.6" stroke="#008080" stroke-linecap="round" stroke-linejoin="bevel"/>
<path d="M184.73 127.02L198.97 125.86L221.29 126.56L248.73 133.18L264.48 142.15" fill="#008080" fill-opacity="0.6"/>
<path d="M184.73 127.02L198.97 125.86L221.29 126.56L248.73 133.18L264.48 142.15" stroke="#008080" stroke-linecap="round" stroke-linejoin="bevel"/>
<path d="M221.29 126.56L241.72 137.99L208.54 145.02L221.29 126.56Z" fill="#008080" fill-opacity="0.6" stroke="#008080" stroke-linecap="round" stroke-linejoin="bevel"/>
<path d="M248.73 133.18L259.3 146.25L241.08 138.13L248.73 133.18Z" fill="#008080" fill-opacity="0.6" stroke="#008080" stroke-linecap="round" stroke-linejoin="bevel"/>
<path d="M261.45 170.83L259.3 146.25L292.92 183.58L261.45 170.83Z" fill="#008080" fill-opacity="0.6" stroke="#008080" stroke-linecap="round" stroke-linejoin="bevel"/>
<path d="M236.25 224.8L220.77 193.64L215.06 230.16L236.25 224.8Z" fill="#008080" fill-opacity="0.6" stroke="#008080" stroke-linecap="round" stroke-linejoin="bevel"/>
<path d="M208.54 145.02L228.1 165.07" stroke="#008080" stroke-linecap="round" stroke-linejoin="bevel"/>
<path d="M292.92 183.58L277 152.6L264.48 142.15L259.3 146.25" fill="#008080" fill-opacity="0.6"/>
<path d="M292.92 183.58L277 152.6L264.48 142.15L259.3 146.25" stroke="#008080" stroke-linecap="round" stroke-linejoin="bevel"/>
<path d="M195.14 187.81L191.27 173.67L220.77 193.64L195.42 188.8L138.49 162.7L195.42 188.8L193.87 215.82L206.79 191.64L215.06 230.16L193.87 215.82" fill="#008080" fill-opacity="0.6"/>
<path d="M195.14 187.81L191.27 173.67L220.77 193.64L195.42 188.8L138.49 162.7L195.42 188.8L193.87 215.82L206.79 191.64L215.06 230.16L193.87 215.82" stroke="#008080" stroke-linecap="round" stroke-linejoin="bevel"/>
<path d="M199.56 157.11L191.27 173.67L138.49 162.7" fill="#008080" fill-opacity="0.6"/>
<path d="M199.56 157.11L191.27 173.67L138.49 162.7" stroke="#008080" stroke-linecap="round" stroke-linejoin="bevel"/>
<path d="M236.25 224.8L245.47 213.97L246.56 202.83L279.33 206.69L292.92 183.58L246.56 202.83L261.45 170.83L228.1 165.07L259.3 146.25L277 152.6" fill="#008080" fill-opacity="0.6"/>
<path d="M236.25 224.8L245.47 213.97L246.56 202.83L279.33 206.69L292.92 183.58L246.56 202.83L261.45 170.83L228.1 165.07L259.3 146.25L277 152.6" stroke="#008080" stroke-linecap="round" stroke-linejoin="bevel"/>
<path d="M246.56 202.83L220.77 193.64L245.47 213.97L279.33 206.69" fill="#008080" fill-opacity="0.6"/>
<path d="M246.56 202.83L220.77 193.64L245.47 213.97L279.33 206.69" stroke="#008080" stroke-linecap="round" stroke-linejoin="bevel"/>
<path d="M261.45 170.83L220.77 193.64L228.1 165.07L191.27 173.67" fill="#008080" fill-opacity="0.6"/>
<path d="M261.45 170.83L220.77 193.64L228.1 165.07L191.27 173.67" stroke="#008080" stroke-linecap="round" stroke-linejoin="bevel"/>
</svg>