<svg xmlns="http://www.w3.org/2000/svg" id="Layer_6" data-name="Layer 6" viewBox="160.51 95.1 225.62 313.74">
  <defs>
    <style>
      .cls-1 {
        stroke-width: 2px;
      }

      .cls-1, .cls-2, .cls-3 {
        stroke-miterlimit: 10;
      }

      .cls-1, .cls-2, .cls-3, .cls-4 {
        stroke: #231f20;
      }

      .cls-1, .cls-3 {
        fill: #231f20;
      }

      .cls-2 {
        fill: #3b3b3c;
      }

      .cls-2, .cls-3 {
        fill-rule: evenodd;
        stroke-width: .1px;
      }

      .cls-4 {
        fill: none;
        stroke-linecap: round;
        stroke-linejoin: bevel;
      }
    </style>
  </defs>
  <g>
    <path class="cls-3" d="M362.94,182.15l15.07,6.65v1.02c0,10.66-.11,12.17-1.93,20.1-1.03,4.72-1.94,9.32-2.06,10.29-.06,1.03,2.3,7.33,5.81,15.62,3.26,7.63,6.11,14.29,6.23,14.65.24.61-1.76.79-8.66.79h-9.02l-5.39,30.76c-2.96,16.89-5.57,30.88-5.75,31.12-.24.24-12.16.97-26.57,1.63-14.46.61-26.33,1.27-26.39,1.39-.12.06-8.71,16.95-19.12,37.42-24.57,48.38-28.69,56.19-28.87,55.1-.12-.48,6.48-24.34,14.52-52.98l14.77-52.07,9.32-.48c5.14-.24,17.61-.79,27.78-1.21l18.46-.73,5.81-29.97,5.75-29.97,9.26-.18c6.59-.12,9.26-.36,9.5-.91.12-.42-2.6-6.96-6.11-14.53-3.51-7.57-6.35-13.99-6.35-14.35,0-.3.67-2.91,1.51-5.81,2.2-7.59,2.97-15.49,2.41-23.36Z"/>
    <path class="cls-2" d="M362.93,182.24c-1.35-19.19-10.58-38.25-26.19-52.54-13.31-12.17-32.26-21.92-50.96-26.28-11.74-2.66-28.26-3.94-39.03-2.91-3.63.36-6.72.54-6.84.48-.6-.61,15.92-4.36,22.52-5.15,14.28-1.7,30.5-.24,45.03,3.94,30.32,8.78,55.92,32.39,65.97,60.85,3.58,10.17,4.6,16.23,4.59,28.2l-3.59-1.59-11.49-5.01Z"/>
  </g>
  <g>
    <g>
      <circle class="cls-1" cx="182.51" cy="193.77" r="1.57"/>
      <circle class="cls-1" cx="167.17" cy="187.87" r="1.57"/>
      <circle class="cls-1" cx="163.91" cy="197.43" r="1.57"/>
      <circle class="cls-1" cx="170.69" cy="198.28" r="1.57"/>
      <circle class="cls-1" cx="323.33" cy="206.69" r="1.57"/>
      <circle class="cls-1" cx="336.92" cy="183.58" r="1.57"/>
      <circle class="cls-1" cx="235.27" cy="173.67" r="1.57"/>
      <circle class="cls-1" cx="265.29" cy="126.56" r="1.57"/>
      <circle class="cls-1" cx="163.08" cy="173.96" r="1.57"/>
      <circle class="cls-1" cx="189" cy="147.99" r="1.57"/>
      <circle class="cls-1" cx="170.38" cy="208.12" r="1.57"/>
      <circle class="cls-1" cx="180.47" cy="202.25" r="1.57"/>
      <circle class="cls-1" cx="305.45" cy="170.83" r="1.57"/>
      <circle class="cls-1" cx="290.56" cy="202.83" r="1.57"/>
      <circle class="cls-1" cx="292.73" cy="133.18" r="1.57"/>
      <circle class="cls-1" cx="308.48" cy="142.15" r="1.57"/>
      <circle class="cls-1" cx="201.42" cy="131.5" r="1.57"/>
      <circle class="cls-1" cx="184.1" cy="142.54" r="1.57"/>
      <circle class="cls-1" cx="228.73" cy="127.02" r="1.57"/>
      <circle class="cls-1" cx="242.97" cy="125.86" r="1.57"/>
      <circle class="cls-1" cx="202.35" cy="208.85" r="1.57"/>
      <circle class="cls-1" cx="196.87" cy="253.56" r="1.57"/>
      <circle class="cls-1" cx="321" cy="152.6" r="1.57"/>
      <circle class="cls-1" cx="285.72" cy="137.99" r="1.57"/>
      <circle class="cls-1" cx="182.49" cy="162.7" r="1.57"/>
      <circle class="cls-1" cx="170.62" cy="161.23" r="1.57"/>
      <circle class="cls-1" cx="205.43" cy="160.27" r="1.57"/>
      <circle class="cls-1" cx="206.82" cy="186" r="1.57"/>
      <circle class="cls-1" cx="243.56" cy="157.11" r="1.57"/>
      <circle class="cls-1" cx="303.3" cy="146.25" r="1.57"/>
      <circle class="cls-1" cx="178.6" cy="212.08" r="1.57"/>
      <circle class="cls-1" cx="252.54" cy="145.02" r="1.57"/>
      <circle class="cls-1" cx="237.87" cy="215.82" r="1.57"/>
      <circle class="cls-1" cx="233.52" cy="231.98" r="1.57"/>
      <circle class="cls-1" cx="229.28" cy="222.02" r="1.57"/>
      <circle class="cls-1" cx="221.58" cy="242.86" r="1.57"/>
      <circle class="cls-1" cx="191.35" cy="235.03" r="1.57"/>
      <circle class="cls-1" cx="210.69" cy="232.76" r="1.57"/>
      <circle class="cls-1" cx="239.12" cy="188.57" r="1.57"/>
      <circle class="cls-1" cx="178.07" cy="229.21" r="1.57"/>
      <circle class="cls-1" cx="259.06" cy="230.16" r="1.57"/>
      <circle class="cls-1" cx="280.25" cy="224.8" r="1.57"/>
      <circle class="cls-1" cx="250.79" cy="191.64" r="1.57"/>
      <circle class="cls-1" cx="264.77" cy="193.64" r="1.57"/>
      <circle class="cls-1" cx="289.47" cy="213.97" r="1.57"/>
      <circle class="cls-1" cx="272.1" cy="165.07" r="1.57"/>
    </g>
    <g>
      <polygon class="cls-4" points="201.42 131.5 184.1 142.54 189 147.99 201.42 131.5"/>
      <polygon class="cls-4" points="170.62 161.23 184.1 142.54 182.49 162.7 170.62 161.23"/>
      <polygon class="cls-4" points="163.08 173.96 170.62 161.23 167.17 187.87 163.08 173.96"/>
      <polygon class="cls-4" points="182.51 193.77 170.62 161.23 167.17 187.87 182.51 193.77"/>
      <polygon class="cls-4" points="170.69 198.28 182.51 193.77 167.17 187.87 170.69 198.28"/>
      <polygon class="cls-4" points="163.91 197.43 167.17 187.87 170.69 198.28 163.91 197.43"/>
      <polygon class="cls-4" points="170.38 208.12 170.69 198.28 163.91 197.43 170.38 208.12"/>
      <polygon class="cls-4" points="206.82 186 182.49 162.7 182.51 193.77 206.82 186"/>
      <polygon class="cls-4" points="205.43 160.27 189 147.99 182.49 162.7 205.43 160.27"/>
      <polygon class="cls-4" points="243.56 157.11 189 147.99 205.43 160.27 243.56 157.11"/>
      <polygon class="cls-4" points="178.6 212.08 178.07 229.21 191.35 235.03 178.6 212.08"/>
      <polygon class="cls-4" points="196.87 253.56 210.69 232.76 221.58 242.86 196.87 253.56"/>
      <polygon class="cls-4" points="229.28 222.02 221.58 242.86 233.52 231.98 229.28 222.02"/>
      <polygon class="cls-4" points="237.87 215.82 229.28 222.02 233.52 231.98 237.87 215.82"/>
      <polygon class="cls-4" points="202.45 208.47 210.69 232.76 178.24 212.07 202.45 208.47"/>
      <polyline class="cls-4" points="202.35 208.85 206.82 186 237.87 215.82 202.35 208.85 229.28 222.02 210.69 232.76 191.35 235.03"/>
      <polyline class="cls-4" points="206.82 186 178.24 212.07 182.51 193.77"/>
      <polyline class="cls-4" points="170.69 198.28 180.67 202.26 170.38 208.12"/>
      <polygon class="cls-4" points="228.73 127.02 243.56 157.11 201.42 131.5 228.73 127.02"/>
      <polygon class="cls-4" points="242.97 125.86 252.54 145.02 243.56 157.11 242.97 125.86"/>
      <polyline class="cls-4" points="228.73 127.02 242.97 125.86 265.29 126.56 292.73 133.18 308.48 142.15"/>
      <polygon class="cls-4" points="265.29 126.56 285.72 137.99 252.54 145.02 265.29 126.56"/>
      <polygon class="cls-4" points="292.73 133.18 303.3 146.25 285.08 138.13 292.73 133.18"/>
      <polygon class="cls-4" points="305.45 170.83 303.3 146.25 336.92 183.58 305.45 170.83"/>
      <polygon class="cls-4" points="280.25 224.8 264.77 193.64 259.06 230.16 280.25 224.8"/>
      <line class="cls-4" x1="252.54" y1="145.02" x2="272.1" y2="165.07"/>
      <polyline class="cls-4" points="336.92 183.58 321 152.6 308.48 142.15 303.3 146.25"/>
      <polyline class="cls-4" points="239.14 187.81 235.27 173.67 264.77 193.64 239.42 188.8 182.49 162.7 239.42 188.8 237.87 215.82 250.79 191.64 259.06 230.16 237.87 215.82"/>
      <polyline class="cls-4" points="243.56 157.11 235.27 173.67 182.49 162.7"/>
      <polyline class="cls-4" points="280.25 224.8 289.47 213.97 290.56 202.83 323.33 206.69 336.92 183.58 290.56 202.83 305.45 170.83 272.1 165.07 303.3 146.25 321 152.6"/>
      <polyline class="cls-4" points="290.56 202.83 264.77 193.64 289.47 213.97 323.33 206.69"/>
      <polyline class="cls-4" points="305.45 170.83 264.77 193.64 272.1 165.07 235.27 173.67"/>
    </g>
  </g>
</svg>